<mxfile host="app.diagrams.net" modified="2024-03-19T00:55:52.180Z" agent="Mozilla/5.0 (Macintosh; Intel Mac OS X 10_15_7) AppleWebKit/537.36 (KHTML, like Gecko) Chrome/122.0.0.0 Safari/537.36" etag="0mAcZEyuQtVV9Bg2w-Tf" version="24.0.7" type="device">
  <diagram name="Page-1" id="DUD_6-T85kScICrpKMMz">
    <mxGraphModel dx="1536" dy="972" grid="1" gridSize="10" guides="1" tooltips="1" connect="1" arrows="1" fold="1" page="1" pageScale="1" pageWidth="850" pageHeight="1100" math="0" shadow="0">
      <root>
        <mxCell id="0" />
        <mxCell id="1" parent="0" />
        <mxCell id="LGyqkTtVOXbUGTZdzTyq-1" value="&lt;font size=&quot;1&quot; data-font-src=&quot;https://fonts.googleapis.com/css?family=Italianno&quot; face=&quot;Italianno&quot; style=&quot;&quot; color=&quot;#ffffff&quot;&gt;&lt;b style=&quot;font-size: 27px;&quot;&gt;f&lt;/b&gt;&lt;/font&gt;" style="rounded=1;whiteSpace=wrap;html=1;fillColor=#000000;strokeColor=none;fontColor=#FF6666;" parent="1" vertex="1">
          <mxGeometry x="20" y="300" width="60" height="60" as="geometry" />
        </mxCell>
        <mxCell id="LGyqkTtVOXbUGTZdzTyq-2" value="&lt;font color=&quot;#ffffff&quot; face=&quot;Italianno&quot; style=&quot;font-size: 27px;&quot;&gt;f&lt;/font&gt;" style="rounded=1;whiteSpace=wrap;html=1;fillColor=#000000;strokeColor=none;fontColor=#FF6666;" parent="1" vertex="1">
          <mxGeometry x="160" y="300" width="60" height="60" as="geometry" />
        </mxCell>
        <mxCell id="LGyqkTtVOXbUGTZdzTyq-4" value="&lt;span style=&quot;color: rgb(255, 255, 255); font-family: Italianno; font-size: 27px;&quot;&gt;f&lt;/span&gt;" style="rounded=1;whiteSpace=wrap;html=1;fillColor=#000000;strokeColor=none;fontColor=#FF6666;" parent="1" vertex="1">
          <mxGeometry x="300" y="300" width="60" height="60" as="geometry" />
        </mxCell>
        <mxCell id="LGyqkTtVOXbUGTZdzTyq-5" value="&lt;span style=&quot;color: rgb(255, 255, 255); font-family: Italianno; font-size: 27px;&quot;&gt;f&lt;/span&gt;" style="rounded=1;whiteSpace=wrap;html=1;fillColor=#000000;strokeColor=none;fontColor=#FF6666;" parent="1" vertex="1">
          <mxGeometry x="440" y="300" width="60" height="60" as="geometry" />
        </mxCell>
        <mxCell id="LGyqkTtVOXbUGTZdzTyq-11" style="edgeStyle=orthogonalEdgeStyle;rounded=0;orthogonalLoop=1;jettySize=auto;html=1;exitX=0.5;exitY=0;exitDx=0;exitDy=0;strokeWidth=3;strokeColor=#6666FF;fontColor=#FF6666;" parent="1" edge="1">
          <mxGeometry relative="1" as="geometry">
            <mxPoint x="49.5" y="419" as="sourcePoint" />
            <mxPoint x="49.5" y="369" as="targetPoint" />
          </mxGeometry>
        </mxCell>
        <mxCell id="hK792VXiPIr8ubialXFB-1" value="&lt;font face=&quot;Ubuntu&quot; style=&quot;font-size: 20px;&quot;&gt;&lt;b&gt;h&lt;/b&gt;&lt;/font&gt;" style="ellipse;whiteSpace=wrap;html=1;aspect=fixed;fillColor=#00CC00;fontColor=#FFFFFF;" vertex="1" parent="1">
          <mxGeometry x="25" y="430" width="50" height="50" as="geometry" />
        </mxCell>
        <mxCell id="hK792VXiPIr8ubialXFB-2" style="edgeStyle=orthogonalEdgeStyle;rounded=0;orthogonalLoop=1;jettySize=auto;html=1;exitX=0.5;exitY=0;exitDx=0;exitDy=0;strokeWidth=3;strokeColor=#6666FF;fontColor=#FF6666;" edge="1" parent="1">
          <mxGeometry relative="1" as="geometry">
            <mxPoint x="49.5" y="290" as="sourcePoint" />
            <mxPoint x="49.5" y="240" as="targetPoint" />
          </mxGeometry>
        </mxCell>
        <mxCell id="hK792VXiPIr8ubialXFB-3" value="&lt;font face=&quot;Ubuntu&quot;&gt;&lt;span style=&quot;font-size: 20px;&quot;&gt;&lt;b&gt;e&lt;/b&gt;&lt;/span&gt;&lt;/font&gt;" style="ellipse;whiteSpace=wrap;html=1;aspect=fixed;fillColor=#FF3399;fontColor=#FFFFFF;" vertex="1" parent="1">
          <mxGeometry x="25" y="180" width="50" height="50" as="geometry" />
        </mxCell>
        <mxCell id="hK792VXiPIr8ubialXFB-4" value="&lt;font face=&quot;Ubuntu&quot;&gt;&lt;span style=&quot;font-size: 20px;&quot;&gt;&lt;b&gt;l&lt;/b&gt;&lt;/span&gt;&lt;/font&gt;" style="ellipse;whiteSpace=wrap;html=1;aspect=fixed;fillColor=#FF3399;fontColor=#FFFFFF;" vertex="1" parent="1">
          <mxGeometry x="165" y="180" width="50" height="50" as="geometry" />
        </mxCell>
        <mxCell id="hK792VXiPIr8ubialXFB-5" value="&lt;font face=&quot;Ubuntu&quot;&gt;&lt;span style=&quot;font-size: 20px;&quot;&gt;&lt;b&gt;l&lt;/b&gt;&lt;/span&gt;&lt;/font&gt;" style="ellipse;whiteSpace=wrap;html=1;aspect=fixed;fillColor=#FF3399;fontColor=#FFFFFF;" vertex="1" parent="1">
          <mxGeometry x="305" y="180" width="50" height="50" as="geometry" />
        </mxCell>
        <mxCell id="hK792VXiPIr8ubialXFB-6" value="&lt;font face=&quot;Ubuntu&quot;&gt;&lt;span style=&quot;font-size: 20px;&quot;&gt;&lt;b&gt;o&lt;/b&gt;&lt;/span&gt;&lt;/font&gt;" style="ellipse;whiteSpace=wrap;html=1;aspect=fixed;fillColor=#FF3399;fontColor=#FFFFFF;" vertex="1" parent="1">
          <mxGeometry x="445" y="180" width="50" height="50" as="geometry" />
        </mxCell>
        <mxCell id="hK792VXiPIr8ubialXFB-8" style="edgeStyle=orthogonalEdgeStyle;rounded=0;orthogonalLoop=1;jettySize=auto;html=1;exitX=0.5;exitY=0;exitDx=0;exitDy=0;strokeWidth=3;strokeColor=#6666FF;fontColor=#FF6666;" edge="1" parent="1">
          <mxGeometry relative="1" as="geometry">
            <mxPoint x="189.5" y="290" as="sourcePoint" />
            <mxPoint x="189.5" y="240" as="targetPoint" />
          </mxGeometry>
        </mxCell>
        <mxCell id="hK792VXiPIr8ubialXFB-9" style="edgeStyle=orthogonalEdgeStyle;rounded=0;orthogonalLoop=1;jettySize=auto;html=1;exitX=0.5;exitY=0;exitDx=0;exitDy=0;strokeWidth=3;strokeColor=#6666FF;fontColor=#FF6666;" edge="1" parent="1">
          <mxGeometry relative="1" as="geometry">
            <mxPoint x="329.5" y="290" as="sourcePoint" />
            <mxPoint x="329.5" y="240" as="targetPoint" />
          </mxGeometry>
        </mxCell>
        <mxCell id="hK792VXiPIr8ubialXFB-10" style="edgeStyle=orthogonalEdgeStyle;rounded=0;orthogonalLoop=1;jettySize=auto;html=1;exitX=0.5;exitY=0;exitDx=0;exitDy=0;strokeWidth=3;strokeColor=#6666FF;fontColor=#FF6666;" edge="1" parent="1">
          <mxGeometry relative="1" as="geometry">
            <mxPoint x="469.5" y="290" as="sourcePoint" />
            <mxPoint x="469.5" y="240" as="targetPoint" />
          </mxGeometry>
        </mxCell>
        <mxCell id="hK792VXiPIr8ubialXFB-11" value="&lt;font face=&quot;Ubuntu&quot; style=&quot;font-size: 20px;&quot;&gt;&lt;b&gt;e&lt;/b&gt;&lt;/font&gt;" style="ellipse;whiteSpace=wrap;html=1;aspect=fixed;fillColor=#00CC00;fontColor=#FFFFFF;" vertex="1" parent="1">
          <mxGeometry x="165" y="430" width="50" height="50" as="geometry" />
        </mxCell>
        <mxCell id="hK792VXiPIr8ubialXFB-12" value="&lt;font face=&quot;Ubuntu&quot; style=&quot;font-size: 20px;&quot;&gt;&lt;b&gt;l&lt;/b&gt;&lt;/font&gt;" style="ellipse;whiteSpace=wrap;html=1;aspect=fixed;fillColor=#00CC00;fontColor=#FFFFFF;" vertex="1" parent="1">
          <mxGeometry x="305" y="430" width="50" height="50" as="geometry" />
        </mxCell>
        <mxCell id="hK792VXiPIr8ubialXFB-13" value="&lt;font face=&quot;Ubuntu&quot; style=&quot;font-size: 20px;&quot;&gt;&lt;b&gt;l&lt;/b&gt;&lt;/font&gt;" style="ellipse;whiteSpace=wrap;html=1;aspect=fixed;fillColor=#00CC00;fontColor=#FFFFFF;" vertex="1" parent="1">
          <mxGeometry x="445" y="430" width="50" height="50" as="geometry" />
        </mxCell>
        <mxCell id="hK792VXiPIr8ubialXFB-14" style="edgeStyle=orthogonalEdgeStyle;rounded=0;orthogonalLoop=1;jettySize=auto;html=1;exitX=0.5;exitY=0;exitDx=0;exitDy=0;strokeWidth=3;strokeColor=#6666FF;fontColor=#FF6666;" edge="1" parent="1">
          <mxGeometry relative="1" as="geometry">
            <mxPoint x="189.5" y="420" as="sourcePoint" />
            <mxPoint x="189.5" y="370" as="targetPoint" />
          </mxGeometry>
        </mxCell>
        <mxCell id="hK792VXiPIr8ubialXFB-15" style="edgeStyle=orthogonalEdgeStyle;rounded=0;orthogonalLoop=1;jettySize=auto;html=1;exitX=0.5;exitY=0;exitDx=0;exitDy=0;strokeWidth=3;strokeColor=#6666FF;fontColor=#FF6666;" edge="1" parent="1">
          <mxGeometry relative="1" as="geometry">
            <mxPoint x="329.5" y="420" as="sourcePoint" />
            <mxPoint x="329.5" y="370" as="targetPoint" />
          </mxGeometry>
        </mxCell>
        <mxCell id="hK792VXiPIr8ubialXFB-16" style="edgeStyle=orthogonalEdgeStyle;rounded=0;orthogonalLoop=1;jettySize=auto;html=1;exitX=0.5;exitY=0;exitDx=0;exitDy=0;strokeWidth=3;strokeColor=#6666FF;fontColor=#FF6666;" edge="1" parent="1">
          <mxGeometry relative="1" as="geometry">
            <mxPoint x="469.5" y="420" as="sourcePoint" />
            <mxPoint x="469.5" y="370" as="targetPoint" />
          </mxGeometry>
        </mxCell>
      </root>
    </mxGraphModel>
  </diagram>
</mxfile>
